<svg width="49" height="51" viewBox="0 0 49 51" xmlns="http://www.w3.org/2000/svg"><title>Untitled 2</title><g id="Page-1" fill="none" fill-rule="evenodd"><g id="logo"><path d="M23.098 7.905h2.804c.314 0 .57-.255.57-.572V.693c0-.315-.256-.572-.57-.572h-2.804c-.314 0-.57.258-.57.573v6.64c0 .317.256.572.57.572zm2.804 33.516h-2.804c-.314 0-.57.257-.57.574v6.64c0 .316.256.572.57.572h2.804c.314 0 .57-.257.57-.573v-6.64c0-.315-.256-.572-.57-.572zm22.43-18.74H41.73c-.314 0-.57.257-.57.574v2.82c0 .314.256.57.57.57h6.602c.314 0 .57-.256.57-.57v-2.82c0-.316-.256-.573-.57-.573zM7.84 26.075v-2.82c0-.316-.256-.57-.57-.57H.668c-.314 0-.57.254-.57.57v2.82c0 .316.256.573.57.573H7.27c.314-.002.57-.257.57-.573zm32.196-8.568c.05.013.098.02.147.02.1 0 .197-.026.284-.077l2.77-1.612c.272-.158.365-.51.208-.782l-1.214-2.11c-.155-.274-.504-.368-.776-.21l-2.77 1.612c-.272.157-.365.508-.208.78l1.214 2.113c.076.13.2.226.346.266zM10.524 34.2L9.31 32.09c-.157-.275-.505-.368-.777-.21l-2.77 1.61c-.13.076-.226.2-.265.348-.04.147-.02.303.057.434l1.214 2.11c.074.133.2.23.345.268.047.013.098.02.147.02.1 0 .197-.027.284-.077l2.77-1.61c.272-.16.365-.508.208-.783zm3.897-23.932c.106.188.3.292.498.292.094 0 .19-.024.277-.073l2.114-1.194c.13-.075.228-.198.27-.344.04-.146.02-.304-.053-.436L15.96 5.708c-.153-.276-.5-.373-.774-.22l-2.114 1.195c-.132.075-.23.2-.27.344-.04.147-.02.302.052.435l1.567 2.806zM34.58 39.06c-.074-.132-.198-.23-.343-.27-.145-.04-.3-.022-.432.05l-2.116 1.195c-.274.155-.372.504-.218.78l1.566 2.806c.074.133.198.23.343.272.052.013.103.02.155.02.097 0 .193-.023.28-.072l2.114-1.194c.13-.075.228-.198.27-.344.04-.145.02-.303-.053-.435L34.58 39.06zM5.695 15.978l2.782 1.59c.09.05.185.075.28.075.2 0 .39-.105.496-.29l1.198-2.12c.075-.132.094-.288.054-.435-.04-.147-.136-.27-.268-.347l-2.782-1.59c-.132-.074-.287-.093-.433-.054-.145.04-.27.137-.344.27l-1.2 2.12c-.153.276-.056.625.216.782zm37.608 17.37l-2.782-1.59c-.13-.074-.288-.095-.433-.054-.147.04-.27.137-.346.27l-1.197 2.12c-.155.274-.06.624.213.78l2.782 1.59c.09.05.186.076.28.076.198 0 .392-.105.496-.29l1.198-2.12c.075-.133.094-.29.055-.436-.04-.145-.136-.27-.266-.345z" fill="#FAFAFA"/><path d="M39.606.17L12.574 26.896l9.52-.294L8.522 50.178l29.62-29.486-9.463.29L39.605.17z" fill="#E2AD40"/></g></g></svg>